<?xml version="1.0" encoding="UTF-8"?>
<svg id="Layer_2" data-name="Layer 2" xmlns="http://www.w3.org/2000/svg" xmlns:xlink="http://www.w3.org/1999/xlink" viewBox="0 0 651.94 19.63">
  <defs>
    <style>
      .cls-1 {
        fill: url(#linear-gradient);
      }
    </style>
    <linearGradient id="linear-gradient" x1="0" y1="9.82" x2="651.94" y2="9.82" gradientUnits="userSpaceOnUse">
      <stop offset="0" stop-color="#6b7947"/>
      <stop offset="1" stop-color="#606c38"/>
    </linearGradient>
  </defs>
  <g id="OBJECTS">
    <path class="cls-1" d="M0,19.63c9.91-1.89,24.9-4.68,35.61-6.72,3.86-.73,6.22-1.04,9.87-2.18,3.15-1.02,8.62-2.71,12.02-3.8,2.82-.88,4.41-1.15,7.5-1.25,4.78-.21,9.66.05,14.32-.79,4.89-.78,9.71-2.48,14.71-2.33,5.01.04,10.65,1.09,15.68.5,3.05-.49,6.77-2.44,9.16-2.89,1.54-.31,2.75-.13,4.36.04,7.44.82,22.4,2.49,31.11,3.46,3.36.37,3.55.39,6.93.26,8.91-.31,24.3-.88,32.98-1.18,10.21.04,29.19,1.36,41.39,1.45,6.14-.3,24.5-1.25,33.74-1.72,3.12-.18,5.26-.31,8.2.05,5.34.53,16.3,1.72,22.3,2.28,8.44.2,27.09-.61,35.64-.69,4.4-.11-1.82,1.57-.76,2.92,1.17,1.1,3.61,1.5,5.49,2.66,1.32.69,2.52,1.51,4.05,1.91,2.23.54,4.16.3,6.81.29,3.71-.07,7.67-.15,11.38-.23,7.05-.09,13.85-1.67,20.85-2.55,3.59-.43,6.41-1.23,9.8-1,6.81.95,15.94,2.01,22.61,3.45,8.34,2.81,8.64.98,14.38-2.9,1.79-1.07,3.85-.63,6.09-.62,8.61.29,24.3.81,33.95,1.13,3.52.12,4.13.1,7.33.59,5.26.63,11.94,2.38,17.47,2.11,3.55-.21,8.45-.93,12.12-1,6.53.16,13.14.72,19.4,1.86,7.04,1.43,15.09,2.25,21.57-.67,2.46-1.01,6.28-2.99,7.71-3.14.44-.04.72.02.92.27.61,1.23-.79,5.39,2.73,5.82.78.17,1.88.23,2.8.21,4.1-.11,11.5-.38,16.02-.53,13.36-.36,26.29-1.17,39.45-1.93,5.45.2,10.94,1.55,16.39,2.28,7.13.94,11.53,2.73,17.86,4.55"/>
  </g>
</svg>