<?xml version="1.0" encoding="UTF-8"?>
<svg id="Layer_2" data-name="Layer 2" xmlns="http://www.w3.org/2000/svg" viewBox="0 0 296.92 218.35">
  <defs>
    <style>
      .cls-1 {
        fill: #283618;
        stroke: #283618;
        stroke-miterlimit: 10;
        stroke-width: .1px;
      }
    </style>
  </defs>
  <g id="OBJECTS">
    <g id="Map">
      <g id="Asia">
        <path class="cls-1" d="M181.96,164.35c-.11.28-.22.57-.22.87.02,1.02,1.37,1.71,1.47,2.73.04.4-.13.8-.13,1.21,0,.41.29.88.75.88.4,0,.68-.33.97-.57.29-.25.82-.4,1.05-.11.1.13.09.3.07.45-.12,1.09-.46,2.16-1,3.14.67.23,1.46-.15,1.83-.69.37-.54.43-1.2.49-1.82.03-.31.05-.64-.1-.93-.22-.43-.76-.66-1.11-1.02-.66-.67-.59-1.68-.22-2.5.37-.82.99-1.54,1.36-2.36.1-.21.18-.44.14-.67-.04-.23-.2-.44-.32-.65-.3-.53-.33-1.14-.46-1.71-1.13-5.05-4.24,2.87-4.59,3.76Z"/>
        <path class="cls-1" d="M193.06,172.21c.12.94-.33,1.91-1.16,2.52-.19.14-.4.26-.51.44-.4.64.53,1.25,1.19,1.68,2.09,1.37,2.34,4.4.51,6.03-.17.15-.36.3-.47.49-.11.19-.12.41-.12.62-.01.95.18,1.91.57,2.8-1.09.47-2.45-.31-2.86-1.3-.42-.99-.18-2.09.02-3.14.07-.39.13-.82-.12-1.15-.41-.53-1.4-.42-1.92.03-.51.45-.69,1.11-.89,1.72-.2.61-.51,1.26-1.15,1.57-.49-2.12,1.51-4.42,4-4.58.54-.04,1.12.01,1.6-.2.49-.21.78-.84.37-1.16-.47.01-.66-.53-.62-.95.04-.41.12-.91-.26-1.15-.39-.25-.97,0-1.23.37-.26.36-.34.79-.59,1.15-.38.54-1.16.84-1.88.73-.04-.94.6-1.88,1.57-2.29-.86-.26-1.75-.69-2.08-1.43s.25-1.78,1.16-1.72c.32.73.65,1.45.97,2.18.71.38,1.7,0,2.11-.63.41-.63.38-1.4.26-2.12.92.41,1.98-.72,1.6-1.55-.22-.48-.73-.81-1.24-.88.58.51,1.06,1.2,1.15,1.93Z"/>
        <path class="cls-1" d="M55.02,33.24c.63-.39.15-1.33-.58-1.54-.73-.21-1.52,0-2.29.02-.77.02-1.7-.3-1.78-.96-.02-.2.03-.4.12-.58.54-1.11,2.05-1.55,3.04-2.39,1.54-1.31,1.67-3.47,3.03-4.93,1.87-2.02,5.4-2.11,7.8-3.65.75-.49,1.38-1.11,2.16-1.56,2.02-1.17,4.65-.97,7.08-1.03,3.18-.07,6.34-.66,9.28-1.72-.62,2.56-4.15,3.52-7.07,4.16-1.96.43-3.91.93-5.83,1.49-2.44.72-4.89,1.56-6.89,2.98-2,1.42-3.52,3.49-3.55,5.74-.02,1.18,1.6,3.72.7,4.63-1.05,1.07-4.06-.21-5.22-.66Z"/>
        <path class="cls-1" d="M129.38,3.31c-.74.21-1.47.41-2.21.62.68.91,2.08,1.35,3.27,1.04,1.25-.33,2.46-1.4,3.63-.89.3.49-.39.98-.95,1.24-.56.27-1.16.9-.7,1.29.11.09.26.14.41.18,2.57.72,5.5.11,7.96,1.08.77.3,1.52.77,2.37.74.85-.03,1.64-.97,1.06-1.5-.38-.35-1.16-.35-1.31-.82-.28-.85,2.02-1.19,1.57-1.99-1.67.04-3.33.09-5,.13-.57.02-1.26-.03-1.5-.48-.14-.25-.09-.57-.28-.79-.23-.27-.7-.27-1.09-.23-.88.08-1.76.15-2.64.23,1.93-.17,4.45-1.06,6.38-1.47-2.57-2.52-9.98-2.22-10.98,1.63Z"/>
        <path class="cls-1" d="M152.65,6.99c-.04-.94-1.54-1.36-2.52-.95-.98.4-1.57,1.27-2.23,2.01-.8.89-1.76,1.66-2.72,2.42,2.52-.28,5.05-.57,7.57-.85.98-.11,2.14-.35,2.44-1.17-.98-.58-2.12-.95-3.3-1.06"/>
        <path class="cls-1" d="M218.82,20.3c.32-.17.62-.39.97-.48,1.44-.36,2.67,1.48,4.13,1.18.62-.13,1.05-.61,1.64-.81,1.38-.46,2.93.8,4.24.03,1.71-1.01.97-1.88-.37-2.34-1.24-.42-3.15.02-4.54-.33-1.03-.26-1.92-.75-2.9-1.12-2.3-.85-5.93-2.28-7.49.29-1.4,2.31,1.71,4.93,4.33,3.56Z"/>
        <path class="cls-1" d="M239.19,19.67c-1.02-.73-2.2-1.28-3.46-1.61-.18-.05-.36-.09-.55-.08-.67.03-1.09.75-.88,1.31.22.55.87.9,1.53,1.01.66.11,1.34.03,2.01-.01,1.41-.08,2.83.01,4.21.29.26-.77-.61-1.54-1.52-1.65-.91-.11-1.8.24-2.63.58"/>
        <path class="cls-1" d="M226.23,24.13c-.78-.33-1.62-.55-2.48-.67-.45-.06-1.12.1-1.01.49.05.17.24.27.41.35,1.17.55,2.42.99,3.71,1.29.6.14,1.42.15,1.62-.35.14-.36-.16-.73-.49-.97-.81-.58-1.96-.79-2.98-.53"/>
        <path class="cls-1" d="M204.36,211.12c-.9.67-1.72,1.42-2.44,2.25.54.23,1.25.11,1.65-.28.4-.39.45-1.02.12-1.46"/>
        <path class="cls-1" d="M210.35,207.84c.53.35,1.01.84,1.03,1.42.02.58-.64,1.17-1.27.99.12-.83.25-1.66.37-2.49"/>
        <path class="cls-1" d="M205.16,197.51c-.98.06-2.05.04-2.81-.49-.72.52-.25,1.61.55,2.05.8.44,1.79.51,2.62.9.83.39,1.45,1.38.85,2.01.66.15,1.32.3,1.98.45.15.54-.55.93-1.09,1.24-.53.31-.97,1.06-.41,1.34.26.48,1.08.4,1.62.15.54-.25,1.11-.62,1.69-.46.38.1.63.4.91.64,1.17,1.04,2.95,1.29,4.45,1.92,1.5.64,2.85,2.19,2.04,3.46-.31.48-.86.8-1.28,1.21-.42.41-.69,1.05-.33,1.5,1.32.08,2.66-.29,3.7-1.01,1.06.99,2.31,1.91,3.83,2.2s3.34-.26,3.93-1.51c.12-.25.2-.53.43-.7.33-.24.83-.16,1.24-.06,1.28.31,2.53.72,3.73,1.21.23.09.47.2.58.4.16.29-.03.62-.09.94-.19,1.17,1.47,1.85,2.82,2.06,1.82.28,3.66.42,5.51.43.06-.81-.94-1.36-1.84-1.53-.9-.18-1.92-.2-2.61-.74-.81-.64-.89-1.79-1.74-2.39-.64-.45-1.76-.74-1.59-1.44.18-.75,1.69-.65,1.98-1.37.18-.45-.27-.92-.78-1.09-.51-.17-1.07-.14-1.6-.22-1.33-.22-2.43-1.26-2.57-2.43-.05-.44.02-.91-.19-1.32-.31-.62-1.14-.89-1.88-1.1-3.94-1.1-7.87-2.21-11.81-3.31-.57-.16-1.18-.32-1.74-.15-1.51.46-1.41,2.82-2.98,3.07-.82.13-1.54-.44-2.11-.96-.56-.51-1.37-1.25-1.44-2-.05-.52.55-.96.5-1.42-.22-1.75-2.53-1.59-4.08-1.49Z"/>
        <path class="cls-1" d="M196.4,198.64c0,.23-.02.48.1.68.12.21.42.36.66.26.18-.07.28-.25.35-.41.25-.52.5-1.12.22-1.63-.13-.23-.35-.41-.44-.65-.29-.71.71-1.1,1.34-1.05-.15-.9-1.03-.26-1.04-1.24,0-.15,1.95-.8.33-1.03-2.11-.31-1.48,3.87-1.53,5.07Z"/>
        <path class="cls-1" d="M200.49,202.56c-.48-.22-1.11-.15-1.52.15-.41.3-.59.83-.43,1.28.96.21,1.93-.77,2.85-.45.6.21.91.93,1.55.96.55.03.94-.65.59-1.02-.3-.31-.86-.31-1.22-.57-.65-.47-.25-1.38.2-2.01-.73-.14-1.28.61-1.37,1.25-.04.28-.05.58-.2.84-.15.25-.51.45-.81.32"/>
        <path class="cls-1" d="M180.66,204.42c.36,1.42,1.12,2.9.53,4.26.65.26,1.44-.22,1.66-.82.22-.6.05-1.24-.12-1.85-.17-.61-.33-1.26-.09-1.85.06-.14.15-.28.32-.31.08-.02.16,0,.24.02.89.22,1.49.96,1.77,1.72.28.77.3,1.58.42,2.38.08.5.24,1.04.71,1.32.79.46,1.91-.16,2.21-.94.3-.78.06-1.63-.07-2.45-.18-1.13-.27-2.5-1.43-3.05-.48-.23-1.14-.33-1.29-.78-.18-.54.55-.96,1.18-1.12.57-.14,1.15-.25,1.73-.31.7-.07,1.61-.25,1.68-.86.07-.63-.85-.95-1.57-1.06-.87-.13-1.75-.26-2.63-.16-.87.1-1.75.46-2.21,1.11-.1.14-.19.3-.36.36-.24.09-.51-.07-.66-.26-.14-.19-.21-.42-.38-.6-1.88-2.03-1.79,4.7-1.65,5.25Z"/>
        <path class="cls-1" d="M196.37,203c-.96-.2-1.98-.18-2.93.06-.17.04-.37.13-.38.28,0,.17.21.26.39.31.91.22,1.92.13,2.76-.25-.13-.33-.62-.5-.97-.33"/>
        <path class="cls-1" d="M192.76,193.35c.16-.05.33-.1.49-.14-.35-.2-.82-.14-1.17.07-.34.21-.58.52-.86.79-.97.94-2.46,1.45-3.91,1.34-.91-.07-1.81-.37-2.71-.22-1.1.18-1.93,1.04-2.26,1.97-.16.47,0,1.18.55,1.15.31-.84,1.19-1.45,2.15-1.72.97-.27,2.01-.22,3.01-.07.78.12,1.57.31,2.36.22.79-.09,1.59-.56,1.69-1.24.07-.5-.24-1.03,0-1.49.21-.39.82-.74.58-1.13-.26.04.32.42.07.47Z"/>
        <path class="cls-1" d="M165.45,202.73c-.99.09-2.3.17-2.68-.64-.23-.47.03-1.01.04-1.52.02-.84-.6-1.57-1.04-2.32-.78-1.31-1.06-2.83-.79-4.29.07-.37.18-.75.48-1.02.19-.17.43-.29.67-.4.93-.42,1.85-.85,2.78-1.27,1.21-.55,2.43-1.11,3.57-1.77,2.84-1.65,5.17-3.97,6.67-6.65.52-.48,1.48-.03,1.83.56.35.59.43,1.3.97,1.77.82.72,2.61.88,2.47,1.88-.05.4-.44.68-.76.97-1.11,1.02-1.57,2.54-1.17,3.9.39,1.36,1.63,2.51,3.16,2.95-1.4.12-3.21.59-3.21,1.82,0,.77.78,1.58.3,2.23-.51.67-1.86.36-2.46.97-.48.49-.18,1.23-.08,1.87.25,1.6-1.17,3.25-3,3.49-.77.1-1.68-.08-2.06-.67-.2-.31-.24-.68-.4-1.01-.67-1.31-1.68-.52-2.67-.53-.69,0-1.67-.4-2.59-.31Z"/>
        <path class="cls-1" d="M180.23,216.64c.37-.35,1.07-.13,1.43.23.36.36.59.83,1.05,1.08.47.25,1.12.2,1.53-.13.24-.19.39-.5.27-.76-.12-.26-.47-.39-.78-.48-.3-.09-.6-.18-.91-.28-.53-.16-1.08-.33-1.64-.26-.56.07-1.11.44-1.11.93"/>
        <path class="cls-1" d="M180.69,214.44c.86.02,1.71.61,2.52.35.2-.07.39-.18.61-.2.27-.02.51.12.76.22,2.37.95,5.09-1.76,7.52-.94-.57,2.01-3.61,2.64-4.81,4.42,2.07-.26,4.01-1.18,5.4-2.54.38-.37.72-.78,1.2-1.04.28-.15.59-.25.86-.41.64-.36,1.03-1.04.97-1.7-.71-.01-1.41.14-2.03.43-.46.22-.88.52-1.39.62-.85.17-1.69-.26-2.55-.36-1.82-.22-3.57,1.43-5.23,1.15-.65-.11-.99-.75-1.82-.93-.67-.15-1.74.1-2.5,0-.85-.1-2.6-.85-3.24-.07-1.89,2.32,3.28.98,3.75.98Z"/>
        <path class="cls-1" d="M157.43,209.37c-.5.6-.99,1.21-1.49,1.81-.11.13-.22.27-.22.43,0,.45.74.52,1.25.45,1.62-.19,3.27-.12,4.86.21,2.68.56,5.23,1.86,7.98,1.7.42-.02.84-.08,1.25-.03.45.06.86.24,1.29.35,1,.26,2.12.11,2.99-.39-.74-.62-1.9-.58-2.92-.64-1.03-.07-2.24-.47-2.37-1.36-.03-.24.02-.49-.05-.72-.15-.5-.81-.75-1.4-.78-.59-.03-1.19.08-1.77-.01-.98-.16-1.73-.96-2.71-1.07-.99-.12-1.42.53-2.22.57-1.64.07-2.94-2.39-4.47-.53Z"/>
        <path class="cls-1" d="M136.52,189c1.18.76,2.65,1.3,3.33,2.42.53.87.53,2,1.35,2.67.44.36,1.05.53,1.49.89,1.04.83.81,2.3,1.31,3.45.71,1.63,2.9,2.6,3.31,4.31.14.58.06,1.21.35,1.75.56,1.03,2.15,1.25,3.04,2.08.44.41.68.95,1.06,1.4,1.07,1.28,3.28,1.72,4.87.96-.57-.76-.89-1.65-.91-2.56-.01-.53.07-1.07-.05-1.6-.28-1.27-1.67-2.16-2.05-3.4.65-.42,1.5.2,1.99.76s1.3,1.19,1.98.81c-1.24-1.41-2.65-2.7-4.21-3.84.12.51-.67.89-1.23.71-.56-.18-.9-.67-1.2-1.12-.22-.34-.45-.71-.41-1.1.03-.33.25-.62.32-.94.14-.68-.42-1.32-1.06-1.73-.64-.41-1.39-.68-1.95-1.17-1.11-.98-1.3-2.67-2.69-3.33-.66-.31-1.47-.31-2.15-.61-2.09-.93-2.49-3.62-4.88-4.45-3.39-1.18-4.11,2.05-1.64,3.63Z"/>
        <path class="cls-1" d="M227.49,82.94c.05.22.09.44.05.66-.07.42-.44.75-.58,1.16-.23.71.29,1.44.9,1.94.61.51,1.35.94,1.74,1.59.65,1.09.19,2.59,1.12,3.51-.29.63-1.38.44-2.02.04-.63-.39-1.41-.91-2.1-.59-.8,1.01-.36,2.4.28,3.5.64,1.1,1.46,2.22,1.33,3.44-.06.58-.56,1.24-1.21,1.11-.25-.05-.45-.21-.63-.37-.87-.73-1.79-1.54-1.95-2.58-.12-.76.19-1.51.41-2.25.45-1.53.54-3.14.25-4.7-.12-.67-.31-1.34-.28-2.01.05-1.25.81-2.65-.03-3.67-.26-.32-.69-.67-.49-1.03.36-.64,1.96-1.84,2.52-2.35.37.82.49,1.72.68,2.6Z"/>
        <path class="cls-1" d="M204.51,130.3c.11-.97.23-2.09,1.17-2.62.3.67.86,1.25,1.58,1.61.64-.32.99-.94,1.36-1.49.37-.56.88-1.13,1.61-1.23.73-.1,1.55.6,1.17,1.15,1.91.66,3.17-1.76,4.94-2.66.93-.48,2.07-.51,3.11-.74,1.05-.23,2.15-.81,2.3-1.75.09-.54-.18-1.08-.2-1.63-.04-1.17.99-2.13,1.65-3.15,1.16-1.78,1.21-4.07.14-5.9-.58-.99-1.48-1.86-1.77-2.94s.43-2.49,1.71-2.48c.35.94.83,2,1.89,2.36,1.07.35,2.49-.83,1.72-1.56,1.2-.29,2.46-.38,3.7-.28.52-.67.4-1.66-.28-2.22,3.91-1.19,7.28-3.53,9.86-6.35-3.57,1.93-7.13,3.85-10.7,5.78-.42.23-.93.46-1.39.31-.42-.14-.63-.54-.84-.89-.96-1.57-2.98-2.6-5.02-2.56.17,1.48.33,2.97.5,4.45-1.21-.19-2.32.8-2.6,1.85s0,2.13.1,3.2c.36,3.76-1.69,7.63-5.21,9.84-.01-.61-.03-1.22-.04-1.82-1.86.24-1.01,3.25-2.68,4-.47.21-1.03.17-1.55.22-2.62.24-2.58,2.58-5.41,1.65-.28,2.99-4.65,2.47-4.34,5.48.27,2.55,3.02,4.49,3.51.38Z"/>
        <path class="cls-1" d="M296.84,55.29c-.09-.33-.39-.6-.7-.83-2.06-1.65-4.36-3.07-6.82-4.2,1.55-.12,3.16-.24,4.55-.89,1.39-.64,2.5-1.93,2.3-3.28-.35-2.31-4.11-3.65-3.73-5.96.18-1.04,1.22-2.09.65-3.02-.39-.64-1.34-.8-2.17-.9-4.35-.51-8.69-1.02-13.05-1.52.19,1.44-.27,3.05-1.61,3.92-1.35.86-3.63.58-4.27-.76-.21-.47-.24-1.02-.61-1.42-.78-.86-2.34-.36-3.54.04-2.56.86-5.48.86-8.04,0-.5-.18-1.04-.41-1.24-.84-.3-.64.2-1.33.25-2.02.07-1.18-1.33-2.09-2.68-2.19-1.34-.1-2.65.37-3.94.73-3.75,1.06-8.2,1.2-11.28-.94-.91-.63-1.67-1.43-2.65-1.97-1.39-.76-3.09-.92-4.72-1.07-4.2-.37-8.39-.74-12.59-1.12-.41-.04-.87-.06-1.2.15-.54.34-.45,1.06-.63,1.62-.34,1.09-1.76,1.66-3.04,1.73-1.29.08-2.6-.19-3.88-.06-.96.09-1.89.4-2.85.35-.97-.05-2.02-.64-1.99-1.47-1.2.66-2,1.85-2.05,3.1-2.44.24-5.52-1.28-4.99-3.38.15-.54.51-1.02.56-1.57.33-3.41-9.36-4.16-11.54-2.69-.6.4-1.06.94-1.62,1.37-2.38,1.8-6.63,1.09-8.07-1.36-3.42-.37-6.9-.35-10.34.04-1.4-2.06-5.02-1.09-7.34.2-2.32,1.28-5.7,2.55-7.47.72,5.86-1.16,11.41-3.47,16.13-6.7.47-.32.99-.76.88-1.29-.07-.36-.43-.62-.78-.83-2.17-1.31-4.84-2.01-7.49-1.95-1.94.04-4.23.34-5.46-.95-.77-.79-.84-2.02-1.78-2.67-.89-.63-2.16-.48-3.29-.31-2.49.39-4.99.78-7.48,1.18-.38.06-.81.14-1.08.38-.35.33-.33.84-.36,1.3-.21,2.86-4.35,4.88-7.27,3.55-.91-.42-1.69-1.09-2.68-1.35-1.25-.32-2.59.05-3.82.42-5.17,1.56-10.33,3.12-15.48,4.67,1.39.82,3.2,1.09,4.82.72.48.75-.78,1.42-1.75,1.6-3.94.72-7.87,1.43-11.81,2.14,2.25,1.49,4.44,3.07,6.53,4.72,1.01-.62,1.97.99,1.59,2.02-.37,1.03-1.08,2.3-.18,3.04-1.2-.35-2.24-1.13-2.83-2.13.63-.4,1.24-.81,1.87-1.22-1.37.24-2.88-.54-3.3-1.7-2.51-.42-4.91-1.36-6.93-2.73-.41.82.15,1.9,1.13,2.2-.92.11-1.86.21-2.78.3.3,1.25,1.6,2.27,3.06,2.42-1.85.41-3.91.03-5.42-.99,1.37-1.8-.64-4.66-3.12-4.41,1.42.17,1.66,1.94,1.04,3.06-.63,1.13-1.73,2.14-1.71,3.38.02,1.53,1.66,3.36.29,4.33,1.66,1.2,4.74-.99,6.13.44.43.45.47,1.07.65,1.63.54,1.68,2.66,2.84,4.63,2.55-1.14,1.57-3.84.02-5.08-1.49-1.23-1.51-4-3.01-5.07-1.41-.35.53-.28,1.17-.28,1.76-.07,4.36-5.95,7.82-10.62,6.24,1.78-1.91,5.96-1.16,7.32-3.3.55-.88.41-1.96.24-2.95-.55-3.23-1.09-6.47-1.64-9.7.33-1.49.45-3.02.37-4.53-1.96.6-5.11.52-5.04-1.28-1.67,2.4-3.33,4.79-5,7.19-1.01,1.44-1.78,3.71-.05,4.47,1.16-.41,2.51.44,2.84,1.5.34,1.05-.09,2.16-.64,3.14-2.5-6.01-15.15-3.24-18.43-8.96-1.51.51-.14,2.53,1.38,3.01,1.53.48,3.63,1.33,3.06,2.65-.43,1.04-2.07,1.04-3.33.96-3.65-.23-7.38.51-10.57,2.08-.28-1.12-.57-2.22-.86-3.33-2.66,1.64-5.33,3.27-7.98,4.92-1.29.79-2.67,1.62-4.25,1.76-1.58.14-3.39-.69-3.59-2.05-.2-1.37,2.08-2.57,3.1-1.51.44-2.51-3.5-4.6-5.87-3.12,1.57,2.31,1.61,5.35.09,7.69-.56.87-1.43,1.69-2.56,1.85-1.14.15-2.44-.71-2.21-1.68-1.44,1.11-2.25,2.8-2.15,4.47-2.34.67-5.13-.13-6.59-1.87.18.97.36,1.93.54,2.9-1.69,1.58-5.38.44-5.55-1.71-.04-.64.15-1.26.15-1.9,0-2.17-2.21-3.79-4.21-5.09,3,.99,6.01,1.98,9.01,2.97,1.69.56,3.49,1.13,5.26.83,2.59-.43,4.26-3.46,1.96-5.03-4.13-2.81-8.9-4.93-13.94-6.19-1.45-.36-3.01-.66-4.44-.25-1.17.32-2.74.97-3.37.06,1.17.15,2.43-.24,3.23-1.02-2.44-.47-4.92-.77-7.42-.88-2.88,2.22-4.84,5.38-4.01,8.55,1.28,4.89,8.58,8.98,5.91,13.42,2.51-.49,5.13-.97,7.62-.42,1.34.28,2.63.97,3.51,1.89-.01-.05,0-.1.01-.15.74-.22,1.54-.44,2.31-.25.75.18,1.37.95.99,1.56-.26.42-.93.77-.7,1.2.16.27.57.31.9.4.92.24,1.44,1.28,1.01,2.04-1.33-.07-2.66-.13-3.99-.18-.45.84-1.06,1.65-1.49,2.49-1.79,3.52-.48,7.55-.34,11.39.07,1.97-.45,4.16-1.58,5.87.27-.05.54-.1.81-.14,5.01-.74,10.73.36,13.81,3.89,3.06,3.53,2.04,9.59-2.67,11.25-1.79.63-3.87.61-5.51,1.5-.66.35-1.16.98-1.39,1.64,3.04-1.5,6.17-2.94,9.61-3.5-.75,1.41-2.25,2.49-3.97,2.86.57.32.38,1.17-.19,1.49-.57.32-1.33.26-1.99.15-.68-.12-1.37-.27-2.04-.13-.59.13-1.05.52-1.27,1-.11.22-.17.45-.17.69,0,.17.03.31.09.47,1.75-1.27,4.54-1.31,6.32-.07.69.48,1.23,1.11,1.96,1.54.81.47,1.87.69,2.49,1.35.61.68.18,2.03-.78,1.85-.03.42.47.72.95.8s.99.05,1.42.24c.99.45.81,1.84-.06,2.45-.87.61-2.07.66-3.19.67-2.93.04-5.96.06-8.64-.98-1.26-.48-2.4-1.2-3.7-1.6-1.29-.4-2.87-.44-3.93.33-.5.36-.82.87-1.29,1.26-1.14.95-3.06,1.08-4.35.28-1.06-.67-1.58-1.9-1.33-3.02-1.22,1.07-2.25,2.3-3,3.64.64,1.59,1.28,3.19,1.93,4.78.21.52.42,1.03.63,1.54.62,1.56,1.63,3.38,3.51,3.49,2.39.14,4.77-2.68,6.67-.14.36.49.47,1.08.47,1.67-.01,1.16,1.81,2.61,2.79,1.7-.11-.83-.21-1.72.23-2.48.44-.74,1.64-1.21,2.41-.69.52.35.62.99.65,1.55.05.83,0,1.68-.12,2.5-.29,1.97-1.19,4.02-3.11,5.07-1.5.82-3.64,1.41-2.42,3.15.28.38,1.42-.06,1.73.31.71.86.21,1.77.32,2.79.19,2.16,3.02,3.25,4.56,4.96,2.14,2.35,1.69,5.72,2.75,8.58,2.15,5.85,10.62,9.6,10.15,15.72-.19,2.38-1.53,5.37.72,6.74,1.51.91,3.57.26,5.24-.41,3.12-1.25,6.25-2.52,9.38-3.78,1.27-.51,2.62-1.09,3.28-2.17.34-.57.45-1.23.92-1.72.7-.72,1.9-.81,2.93-1.11,2.31-.68,3.85-2.57,5.01-4.44,1.25-2.03,2.23-4.18,2.93-6.41.18-.59.35-1.2.18-1.8-.61-2.16-4.97-2.37-5.19-4.59-.09-.93.65-1.75,1-2.64.35-.88-.03-2.18-1.1-2.17-.64,1.65-1.34,3.36-2.77,4.57-1.44,1.21-3.87,1.72-5.45.66-1.17-.78-1.55-2.15-2.35-3.22-1.22-1.67-3.42-2.67-4.48-4.42-1.06-1.74.5-4.68,2.59-3.93,1.02,3.3,3.63,6.2,7.07,7.87,2.13-.63,4.18-1.47,6.09-2.51.96-.67,2.22.58,2.32,1.64.1,1.07-.09,2.36.9,2.98.51.32,1.18.34,1.81.34,5.16,0,10.3-.52,15.31-1.55-1.02,2.61,1.73,5.74,4.9,5.54-.38,1.07-1.61,1.86-2.89,1.87.62,1.05,1.27,2.15,2.38,2.85,1.1.7,2.78.85,3.75.02.91-.77,1.04-2.21,2.22-2.64,1.37-.5,2.74,1,2.62,2.29-.11,1.29-1.05,2.4-1.54,3.62-1,2.5-.07,5.24.86,7.76,1.79,4.86,3.65,9.85,7.31,13.84,1.32-1.08,2.63-2.15,3.95-3.22,1.78.26,1.84,2.49,1.27,3.97-.57,1.5-1.1,3.51.44,4.32,1.39.72,3.24-.44,3.55-1.81.3-1.38-.42-2.74-1.11-4.01-.91-1.62-1.81-3.24-2.71-4.87-.32-.56-.64-1.16-.59-1.78.04-.54.35-1.02.61-1.51.81-1.58,1.07-3.38.71-5.08,4.83-2.14,8.87-5.6,11.36-9.8.38-.63.74-1.29,1.41-1.71,1.98-1.25,5.31.51,7.07-.99,2.44.79,4.5,2.42,5.66,4.46.84,1.49,1.63,3.47,3.54,3.6-2.92,1.04-4.9,3.8-4.67,6.53,2.94.65,6.18-1.77,5.89-4.39,1.15-.57,2.67.13,3.28,1.15.61,1.02.54,2.23.46,3.37-.23,3.46-.46,6.91-.69,10.35-.07,1.03-.11,2.14.54,2.99.62.8,1.79,1.25,2.22,2.16.64,1.32-.64,2.99.19,4.23.45.66,1.34.95,2.03,1.41,1.46.98,1.96,2.69,3.02,4.02,1.06,1.32,3.5,2.18,4.65.92-2.44-1.67-4.01-4.27-4.17-6.97-.03-.62-.01-1.26-.3-1.82-.36-.71-1.14-1.17-1.79-1.68-3.83-3.05-3.36-8.31-2.58-12.77,1.78,2.26,4.63,3.86,7.74,4.33-1,1.79-.14,4.19,1.86,5.17.14-1.75,1.64-3.36,3.59-3.82.84-.21,1.75-.22,2.54-.52,2.4-.9,2.66-3.72,2.53-5.99-.04-.89-.1-1.82-.65-2.57-.92-1.22-2.79-1.51-4.26-2.23-2.62-1.29-3.91-4.34-2.85-6.81,1.05-2.46,4.3-4.05,7.26-3.53.98.37.54,1.72-.32,2.28-.86.56-2.03.89-2.42,1.76-.56,1.2,1.1,2.53,2.56,2.25,1.45-.26,2.39-1.61,2.49-2.9.09-1.29-.45-2.55-.99-3.76,3.13.6,6.58-.36,8.73-2.42.61-.58,1.15-1.25,1.93-1.65,1.52-.77,3.69-.35,4.94-1.44.96-.83.89-2.16,1.18-3.31.55-2.14,2.44-3.77,3.57-5.72,1.1-1.95,2.21-4.95,1.61-7.1-.43-1.57-1.36-2.99-2-4.5-.46-1.07-.78-2.17-.95-3.31-.07-.46-.11-.97.14-1.38.44-.73,1.52-.91,2.33-1.34,1.2-.65,1.84-2.01,1.48-3.19-3.34.97-7.26.24-9.84-1.86.74-1.25,2.4-1.84,3.83-2.51,1.44-.66,2.94-1.73,2.87-3.15.91,0,1.81,0,2.71,0,.07,1.29-.63,2.6-1.8,3.39,1.24.93,3.1.05,4.56-.62,1.45-.67,3.88-.67,4.06.75.17,1.36-2.21,2.28-1.88,3.62,1.67-.49,3.45,1.44,2.54,2.75-.25.35-.64.7-.57,1.11.08.5.75.7,1.26.94,1.41.65,2.02,2.33,1.29,3.57.98-.67,1.96-1.32,2.94-1.99.23.78,1.24,1.31,2.15,1.14.9-.19,1.53-1.07,1.33-1.85-.19-.77-1.01-1.31-1.28-2.06-.41-1.13.52-2.38.07-3.5-.35-.87-1.42-1.33-2.29-1.88-.87-.55-1.64-1.54-1.13-2.35.32-.5.99-.71,1.54-1,2.76-1.49,3.34-5.73,6.59-5.83.65-.02,1.3.16,1.94.08,1.85-.23,2.49-2.17,3.36-3.61,1.91-3.2,6.37-4.76,8.39-7.93,1.54-2.43,1.36-5.4,2.27-8.07.66-1.94,1.93-3.96,1.15-5.87-.97-2.38-5.39-2.85-6.99-.73.26-1.2.52-2.39.79-3.6-.97,2.71-7.4.26-1.8-2.39,3.74-1.76,7.08-4.18,9.77-7.04.91-.97,1.78-2.02,2.97-2.72,4.4-2.59,10.46.62,15.62-.51.18.44.35.88.53,1.32-1.38.5-2.76,1.01-4.13,1.51,2.91,1.19,6.04-1.63,9.24-1.51.93.03,2.29.04,2.34-.76-.87-.12-1.98-.53-1.82-1.27.06-.27.28-.49.51-.69.83-.77,1.68-1.54,2.52-2.31,1.41-1.29,3.68-2.66,5.29-1.55,1.22.85.65,2.9-.88,3.18,1,.87,2.7.08,3.7-.8,1-.87,2.3-1.93,3.63-1.48.37-.65.37-1.44.02-2.09,1.07-.52,2.39-.64,3.55-.32-.71.52-1.19,1.27-1.34,2.08-.1.52-.06,1.05-.24,1.55-.64,1.86-3.5,2.08-5.52,2.93-3.56,1.5-4.8,5.47-7.99,7.47-.79.5-1.68.87-2.33,1.5-1.41,1.35-1.23,3.46-.57,5.19.68,1.73,1.75,3.4,1.87,5.22.02.34.01.69-.02,1.02-.15,1.21,1.57,1.89,2.54,1.03.24-.22.47-.42.71-.63,1.14-1.02,2.32-2.07,2.89-3.4.39-.94.57-2.09,1.58-2.58.73-.36,1.64-.21,2.48-.33.83-.12,1.72-.85,1.31-1.5-1.36-.84-1.13-2.97.38-3.59.63.25,1.26.52,1.89.78,1.5-.6-.77-2.73.06-3.98.32-.48,1.07-.77,1.05-1.32-.02-.69-1.14-.8-1.91-.7-.52-2.22,1.25-4.66,3.77-5.21-.04.46-.09.93-.14,1.39,1.25-.69,2.5-1.37,3.75-2.07.23.53.44,1.06.65,1.6,1.5.68,2.67-2.29,4.22-1.74.34.13.56.39.84.59,1.11.79,3.12.19,3.42-1.04,1.16-4.64,7.65-4.86,13.08-5.25,1.26-.09,3.01-.57,2.71-1.65ZM56.72,111.98c-.91.72-2.23.91-3.45.74-.29.22-.08.66.25.83.33.18.73.23,1.01.46.51.42.3,1.15.38,1.74.15.98,1.1,1.72,1.36,2.67.46,1.71-1.67,3.29-3.69,3.3-4.23.03-7.21-2.96-8.3-6.17-.63-1.83-1.84-6.82,1.41-7.1-.98-1.12.04-2.35-.56-3.55-.34-.65-1.17-.96-1.73-1.48-1.13-1.04-.96-2.79,0-3.96.96-1.17,2.49-1.85,4.02-2.37,1.5-.51,3.19-.9,4.66-.37,1.49.53,2.38,2.36,1.27,3.37-1.19,1.09-3.64.46-4.73,1.64-.69.72-.45,1.87.24,2.6.7.72,1.73,1.13,2.74,1.47.56.2,1.17.42,1.4.9.35.72-.36,1.44-.81,2.11-.44.68-.35,1.85.54,1.85.87,0,1-1.08,1.49-1.7.68-.88,2.42-.74,3.1.15.66.88.32,2.16-.59,2.87ZM162.42,77.73c-.19.32-.43.65-.55,1-.14.39-.14.81-.25,1.21-.34,1.18-1.59,1.94-2.71,2.65-.79.49-1.57,1.04-2.04,1.77-.19.3-.33.64-.54.94-1.11,1.64-4.46,1.97-2.35-.31,1.3-1.42,3.23-3.51,4.84-4.74.55-.42,1.23-.77,1.6-1.32.61-.9.27-2.03.32-3.07.03-1.04.95-2.28,2.09-1.99.43,1.26.28,2.67-.41,3.86ZM18.43,59.64c.01.11.01.22,0,.33-.03.4-.14.78-.28,1.16.18,0,.35,0,.48,0,.27-.5.1-.99-.2-1.49ZM9.63,84.5c2.14-.14,3.74-1.31,4.8-2.93-2.03.42-4.02,1.28-4.8,2.93Z"/>
      </g>
    </g>
  </g>
</svg>