<?xml version="1.0" encoding="UTF-8"?>
<svg id="Layer_2" data-name="Layer 2" xmlns="http://www.w3.org/2000/svg" xmlns:xlink="http://www.w3.org/1999/xlink" viewBox="0 0 124.5 97.42">
  <defs>
    <style>
      .cls-1 {
        fill: url(#linear-gradient-2);
      }

      .cls-1, .cls-2, .cls-3, .cls-4, .cls-5, .cls-6, .cls-7, .cls-8, .cls-9, .cls-10 {
        stroke: #283618;
        stroke-miterlimit: 10;
        stroke-width: .1px;
      }

      .cls-2 {
        fill: url(#linear-gradient-6);
      }

      .cls-3 {
        fill: url(#linear-gradient-3);
      }

      .cls-4 {
        fill: url(#linear-gradient-7);
      }

      .cls-5 {
        fill: url(#linear-gradient-9);
      }

      .cls-6 {
        fill: url(#linear-gradient-8);
      }

      .cls-7 {
        fill: url(#linear-gradient-4);
      }

      .cls-8 {
        fill: url(#linear-gradient);
      }

      .cls-9 {
        fill: url(#linear-gradient-5);
      }

      .cls-10 {
        fill: url(#linear-gradient-10);
      }
    </style>
    <linearGradient id="linear-gradient" x1="71.32" y1="7.01" x2="71.32" y2=".09" gradientUnits="userSpaceOnUse">
      <stop offset=".05" stop-color="#556132"/>
      <stop offset="1" stop-color="#606c38"/>
    </linearGradient>
    <linearGradient id="linear-gradient-2" x1="83.34" y1="12.53" x2="83.34" y2="9.17" xlink:href="#linear-gradient"/>
    <linearGradient id="linear-gradient-3" x1="98.98" y1="39.97" x2="98.98" y2="35.8" xlink:href="#linear-gradient"/>
    <linearGradient id="linear-gradient-4" x1="105.33" y1="34.3" x2="105.33" y2="24.68" xlink:href="#linear-gradient"/>
    <linearGradient id="linear-gradient-5" x1="89.16" y1="16.57" x2="89.16" y2="9.74" xlink:href="#linear-gradient"/>
    <linearGradient id="linear-gradient-6" x1="38.39" y1="76.32" x2="38.39" y2="16.73" xlink:href="#linear-gradient"/>
    <linearGradient id="linear-gradient-7" x1="59.34" y1="34.08" x2="59.34" y2="33.79" xlink:href="#linear-gradient"/>
    <linearGradient id="linear-gradient-8" x1="63.47" y1="87.36" x2="63.47" y2="80.45" xlink:href="#linear-gradient"/>
    <linearGradient id="linear-gradient-9" x1="108.02" y1="97.37" x2="108.02" y2="81.65" xlink:href="#linear-gradient"/>
    <linearGradient id="linear-gradient-10" x1="118.87" y1="83.61" x2="118.87" y2="65.14" xlink:href="#linear-gradient"/>
  </defs>
  <g id="OBJECTS">
    <g id="Map">
      <g id="Australia">
        <path class="cls-8" d="M66.35,6.53c.11.15.32.22.52.26,1.64.39,3.45.23,4.96-.44.49-.22.96-.49,1.51-.54.36-.03.72.03,1.08,0,.36-.03.74-.21.81-.52.07-.3-.19-.65.02-.9.21-.26.74-.16.98-.41.26-.27-.05-.67-.35-.92-1.21-1-2.4-2.08-3.7-2.98-.12,1.43,1.08,3.07-.2,4.29-.75.71-6.01,1.62-5.62,2.15Z"/>
        <path class="cls-1" d="M82.48,10.98c.6.17,1.23.25,1.81.45.58.2,1.14.57,1.32,1.1,0-.02,0-.05,0-.07-.21-1.4-1.85-2.28-3.3-2.94-.19-.09-.39-.18-.49-.35-.06-.1-2.01,1.04.67,1.81Z"/>
        <path class="cls-3" d="M99.57,38.11c-.15-.58-.38-1.16-.82-1.62-.44-.45-1.13-.76-1.81-.68-.58,1.11.43,2.38,1.59,3.07.82.49,1.74.79,2.66,1.07-1.16.17-1.42-1.07-1.62-1.84Z"/>
        <path class="cls-7" d="M103.38,27.97c.54,1.14.93,2.33,1.15,3.54.65-.32.83-1.18.36-1.68.46.36.47.97.58,1.5.28,1.39,1.55,2.6,3.12,2.96.24-.41.04-.92-.3-1.28s-.8-.6-1.18-.92c-.72-.6-1.16-1.45-1.2-2.31-.03-.78.13-1.77-.66-2.15-.14.34-.27.68-.41,1.01-.23-.02-.37-.21-.46-.4-.54-1.13,0-2.75-1.22-3.58-.19.5-.56,1.02-1.19,1.09,0,.81,1.05,1.43,1.42,2.2Z"/>
        <path class="cls-9" d="M87.63,11.34c.9.33,2.06.21,2.74.82.67.6.53,1.62,1.1,2.3.27.32.67.53.97.83.29.3.45.78.16,1.08-.37.38-1.13.14-1.41-.28-.28-.43-.26-.95-.33-1.44-.07-.49-.31-1.03-.85-1.19-.52-.15-1.2.09-1.56-.27-.12-.12-.17-.28-.23-.43-.52-1.21-2.29-1.8-2.6-3.02.7.47,1.13,1.27,2.03,1.61Z"/>
        <path class="cls-2" d="M35.18,18.64c-.47-.85-1.85-1.21-2.77-.71.81.59.89,1.78.16,2.45-.37.34-.89.53-1.31.81-1.41.95-1.47,3.05-.12,4.05l-1.96.88c-.46-1.49-1.77-2.77-3.43-3.33-2.26,1.23-3.93,3.23-4.59,5.48-.26.04-.52.08-.79.12-.12.66-.24,1.33-.36,1.99-.58-.67-.81-1.56-.63-2.39-1.36.23-2.13,1.49-2.5,2.66-.37,1.16-.6,2.45-1.58,3.3-.72.62-1.73.9-2.71,1.16-1.49.4-2.98.8-4.48,1.19-1.23.33-2.57.73-3.23,1.69-.54.78-.88,2.02-1.92,1.91-.44-.05-.78-.36-1.2-.45-.88-.19-1.67.65-1.7,1.44-.04.79.39,1.53.63,2.29.24.76.21,1.7-.5,2.19.83.04,1.68.33,2.17.91.49.58.49,1.5-.14,1.97-.63.47-1.82.2-1.97-.51,1.82,4.3,3.1,8.78,3.82,13.32.29,1.86.47,3.86-.57,5.5,1.8,1.18,4.42,1.3,6.35.3,1.08-.56,1.94-1.43,3.07-1.91,1.98-.84,4.37-.35,6.47-.91,1.93-.51,3.49-1.86,5.48-2.16,1.5-.23,3.16.15,4.47-.52.62-.32,1.07-.83,1.67-1.18.67-.39,1.48-.55,2.28-.59,3.18-.16,6.44,1.75,7.16,4.45.18.68.21,1.39.52,2.03.31.64,1,1.22,1.79,1.16.2-2.12,2.51-3.91,4.95-3.84.12.68-.44,1.31-1.04,1.76-.6.45-1.29.86-1.6,1.5-.31.63.04,1.56.83,1.61.4-.66.95-1.25,1.61-1.72,1.24.96.66,3.08-.95,3.44,1.54-.4,3.73-.53,4.24.79.15.37.1.78.14,1.18.23,2.05,2.69,3.24,4.84,4.09.44.17.91.35,1.38.28.82-.12,1.25-.87,1.73-1.46.47-.59,1.45-1.1,2.07-.63.54.41.32,1.22.74,1.72.58.68,1.86.31,2.5-.32.63-.64,1.01-1.49,1.83-1.94,1.52-.84,4.29-.18,4.74-1.7.24-.83-.55-1.59-.81-2.41-.41-1.28.55-2.6,1.64-3.53,1.1-.93,2.42-1.74,3.07-2.94,1.09-2.02-.05-4.41.38-6.61.44-2.2,2.44-4.39,1.39-6.43-.41-.8-1.25-1.4-1.59-2.23-.33-.8-.2-1.76-.82-2.41-.39-.41-1.01-.6-1.51-.92-1.66-1.04-1.71-3.12-2.34-4.82-1.16-3.09-4.48-5.09-6.78-7.65-.43-.47-.82-.98-1.01-1.56-.21-.67-.12-1.38-.18-2.08-.15-1.69-1.32-3.29-3.02-4.12-.37-.18-.78-.34-1.04-.63-.37-.42-.35-.99-.37-1.52-.07-1.98-.98-3.93-2.5-5.4-1.01,4.34-2.02,8.69-3.03,13.03-.59.39-1.3.63-2.03.69-.29-1.11-.58-2.22-.87-3.33-1.44.06-2.95.12-4.24-.44-1.29-.55-2.24-1.93-1.66-3.08.32-.63,1.03-1.32.56-1.87,1.29.42,2.41-1.4,1.47-2.27-1.49-1.37-3.11.62-4.64.55-1.9-.09-3.6-2.4-5.64-1.36Z"/>
        <line class="cls-4" x1="59.1" y1="34.08" x2="59.59" y2="33.79"/>
        <path class="cls-6" d="M62.54,86.38c-.01.32-.02.71.3.88.13.07.28.08.43.09,1.09.06,2.45-.06,2.83-.95.3-.71-.27-1.54.04-2.25.1-.23.29-.43.44-.64.4-.52.63-1.18.43-1.78-.19-.6-.9-1.1-1.61-.98-.39.06-.71.29-1.09.38-1.22.28-4.73-2-4.43.55.09.8,1.36,1.43,1.83,2.08.56.78.86,1.7.83,2.63Z"/>
        <path class="cls-5" d="M102.99,90.85c-.81.23-1.71.34-2.39.79-.68.45-.99,1.45-.32,1.92.51.36,1.27.21,1.9.39,1.4.39,1.53,2.05,1.39,3.33.98.37,2.05-.38,2.6-1.19.54-.8.92-1.77,1.83-2.26.59-.32,1.37-.41,1.81-.88.62-.66.21-1.66.44-2.49.57-2.08,4.03-2.27,4.95-4.3.64-1.41,1.81-4.18-.11-4.47-4.8-.73-7.94,7.96-12.09,9.15Z"/>
        <path class="cls-10" d="M118.08,83.15c0,.11,0,.23.07.32.17.23.59.14.84-.04,1.41-1,.56-3.15,1.64-4.42.36-.42.89-.7,1.36-1.02,1.51-1.04,2.44-2.7,2.46-4.38-.7.33-1.41.66-2.2.76-.78.1-1.67-.1-2.14-.65-.58-.68-.38-1.69-.93-2.39-.63-.81-1.99-.92-2.75-1.65-.69-.66-.71-1.65-.87-2.53-.16-.88-.68-1.89-1.7-2.02-2.02,2.01,1.95,4.54,2.46,6.26.49,1.65-.48,2.11-1.24,3.49-.79,1.44-1.32,2.58.25,3.69,1.01.72,1.84-.38,2.72.95.51.77.03,2.76.02,3.61Z"/>
      </g>
    </g>
  </g>
</svg>