<?xml version="1.0" encoding="UTF-8"?>
<svg id="Layer_2" data-name="Layer 2" xmlns="http://www.w3.org/2000/svg" xmlns:xlink="http://www.w3.org/1999/xlink" viewBox="0 0 111.64 122.28">
  <defs>
    <style>
      .cls-1 {
        fill: url(#linear-gradient-5);
      }

      .cls-1, .cls-2, .cls-3, .cls-4, .cls-5 {
        stroke: #fefae0;
        stroke-miterlimit: 10;
        stroke-width: .1px;
      }

      .cls-2 {
        fill: url(#linear-gradient);
      }

      .cls-3 {
        fill: url(#linear-gradient-3);
      }

      .cls-4 {
        fill: url(#linear-gradient-4);
      }

      .cls-5 {
        fill: url(#linear-gradient-2);
      }
    </style>
    <linearGradient id="linear-gradient" x1="58.73" y1="12.08" x2="82.54" y2="-1.67" gradientUnits="userSpaceOnUse">
      <stop offset="0" stop-color="#384521"/>
      <stop offset=".96" stop-color="#5e6a36"/>
      <stop offset="1" stop-color="#606c38"/>
    </linearGradient>
    <linearGradient id="linear-gradient-2" x1="14.64" y1="112.85" x2="102.45" y2="62.15" xlink:href="#linear-gradient"/>
    <linearGradient id="linear-gradient-3" x1="48.15" y1="110.55" x2="52.94" y2="107.78" xlink:href="#linear-gradient"/>
    <linearGradient id="linear-gradient-4" x1="13.02" y1="85.15" x2="38.82" y2="70.25" xlink:href="#linear-gradient"/>
    <linearGradient id="linear-gradient-5" x1="3.29" y1="52.17" x2="20.99" y2="41.95" xlink:href="#linear-gradient"/>
  </defs>
  <g id="OBJECTS">
    <g id="Map">
      <g id="Europe">
        <path class="cls-2" d="M56.25,6.32c1.1.56,2.43.67,3.56,1.17,1.33.59,2.3,1.74,2.56,3.02.16.78.08,1.64.58,2.31.73.96,2.46,1.03,3.52.34,1.06-.69,1.5-1.92,1.49-3.07,0-.91-.19-1.96.56-2.59.32-.27.76-.4,1.18-.53.83-.24,1.7-.48,2.56-.35.86.13,1.69.74,1.68,1.5-.02.92-1.2,1.77-.74,2.59,1.67-.02,3.33-.04,5-.06.58-.51.17-1.42-.51-1.82-.68-.4-1.54-.49-2.28-.78-.75-.29-1.45-.95-1.25-1.64.32-1.04,2.01-.91,3.25-.87,3.29.1,6.33-2.6,6.14-5.46-2.92-.39-4.37,2.39-6.79,3.12-2,.6-3.1-.41-4.94-.26-1.96.16-2.42,1.25-3.93,1.56-2.35.49-4.04-.52-6.47-.8-1.89-.22-10.14.08-5.17,2.62Z"/>
        <path class="cls-5" d="M107.18,94.82c-1.79.63-3.87.61-5.51,1.5-.66.35-1.16.98-1.39,1.64-.27.13-.54.26-.81.39-4.75,2.35-2.97-2.82-7.42-2.79-4.34.03-3.09,6.35-5.02,5.79-.5.96.32,2.11-.03,3.12-.12.35-.37.66-.55.99-.11.21-.19.42-.24.65-1.22,1.07-2.25,2.3-3,3.64-.06-.15-.11-.28-.17-.43-1.06-.91-3,.06-3.33,1.31-.34,1.25.29,2.54.72,3.77.43,1.23.57,2.74-.48,3.65-.55.48-1.45.81-.65,1.91.28.4.84.56,1.39.49,1.15-.15,2.13,1.7,1,1.76-2.07.22-3.59-1.68-4.25-3.41-.64-1.72-1.09-3.73-2.84-4.73-.86-.49-2.02-.72-2.43-1.54-.7-1.36,1.33-2.96.59-4.3-.73-1.31-3.19-.83-4.46-1.8-1.07-.83-.92-2.43-1.96-3.28-.53-.44-1.26-.61-1.94-.83-2.14-.72-3.91-2.2-4.8-4.04-1.23.2-1.05,1.78-.46,2.74,2.25,3.66,5.83,6.7,10.1,8.57-1.38.61-2.07,1.98-2.63,3.24-.87,1.88-1.72,3.77-2.58,5.66-1.31-.14-2.67-.3-3.72-.99-1.05-.69-1.61-2.09-.83-3,1.43,1.2,4.2.77,5.06-.78.86-1.58-.5-3.71-2.48-3.91.83-2.06-1.82-3.86-4.17-4.63-2.34-.77-5.21-1.75-5.5-3.92-1.07-.83-2.79-.41-3.95.31-1.16.73-2.13,1.74-3.49,2.15-1.35.4-3.28-.27-3.2-1.52-.7.53-1.4,1.05-2.09,1.58,1.59.39.69,2.61-.78,3.26-1.46.65-3.46,1.06-3.82,2.46-.15.56.04,1.15.03,1.73-.01.88-.48,1.71-.95,2.51-1.15,1.95-2.62,4.12-5.1,4.53-1.45.24-3.67.37-3.47,1.64-2.09-1.59-5.02-2.32-7.77-1.94.17-1.12.34-2.23.5-3.34-.95-.13-1.9-.24-2.85-.36,1.46-1.76,1.99-4.1,1.41-6.22-.33-1.19-.72-2.85.6-3.27-.71-.55-1.23-1.28-1.49-2.09,1.97-.75,4.27-.83,6.32-.24.89.25,1.73.64,2.64.87,2.54.67,5.61-.08,7.07-2,1.46-1.93.86-4.93-1.48-6.03-1.23-.58-2.71-.63-3.92-1.25-1.18-.63-1.8-2.35-.61-2.97.98,1.3,3.23,1.7,4.72.85-.7-1.04-1-2.26-.87-3.46,1.09-.39,2.5.51,2.36,1.54,1.94.04,3.83-1.12,4.45-2.71.23-.55.32-1.16.75-1.61.59-.6,1.6-.69,2.44-.96,2.09-.69,3.33-2.91,2.65-4.75,2.7-1.09,5.72-1.58,8.68-1.43-1.05-1.68-2.13-3.48-2.03-5.4.1-1.91,1.89-3.89,4.08-3.71.34,1.12.32,2.31-.05,3.43.64.13,1.27.24,1.91.37-1.38,1-2.79,2.93-1.35,3.87,1.15.74,2.79-.22,4.2.04.64.12,1.19.49,1.82.62,2.85.62,5.61-3.46,8.02-2,.81.49,1.14,1.49,2.52,1.34.77-.09,1.43-.51,1.8-1.1.8-1.2.54-2.6.7-3.93.14-1.16.78-2.44,2.07-2.74,1.42-.33,2.78.69,4.25.82,2.47.24,4.4-2.7,2.91-4.43-1.87,1.24-4.27,1.86-6.62,1.69-.7-1.06.75-2.2,2.03-2.7,4.38-1.69,9.35-2.21,14.06-1.47.84-.69-.37-1.76-1.41-2.19-1.04-.42-2.18-1.58-1.29-2.2-3.11-1.09-5.83,2.7-9.19,2.84-3.43.15-5.43-3.85-4.16-6.63,1.28-2.77,4.47-4.47,7.45-5.96-1.97-2.69-7.13-2.91-9.38-.39.28,2.06-.68,4.21-2.48,5.56-1.86,1.39-4.89,2.66-4.26,4.73.55,1.81,3.87,2.68,3.42,4.53-.41,1.69-3.59,1.71-4.35,3.31-.54,1.17.51,2.6-.14,3.72-.65,1.14-2.51,1.18-3.68,1.94-.8.52-1.25,1.34-1.98,1.93-.74.58-2.08.8-2.62.07-.53-.72.17-1.62.55-2.41,1.17-2.34-.52-4.95-2.15-7.07-3.31-.23-5.02,5.21-8.1,4.1-.87-.31-1.37-1.08-1.81-1.8-1.22-1.96-2.44-3.96-2.91-6.15-.45-2.19-.01-4.64,1.76-6.25,2.35-2.14,6.31-2.26,8.92-4.14,2.93-2.11,3.64-6.01,6.78-7.87,1.88-1.11,4.76-1.7,4.99-3.67-2.07.15-4.14.29-6.22.44.95-1.51,3.19-2.29,5.06-1.77-.78-1.45,1.15-3.01,2.98-3.23,1.84-.22,3.76.24,5.53-.22,1.44-.38,2.59-1.31,3.98-1.83,1.19-.45,2.52-.56,3.83-.62,1.46-.06,2.94-.06,4.4,0-2.88,2.22-4.84,5.38-4.01,8.55,1.28,4.89,8.58,8.98,5.91,13.42,2.51-.49,5.13-.97,7.62-.42,1.34.28,2.63.97,3.51,1.89-.12.85.68,1.66,1.14,2.45.01.11.01.22,0,.33-.03.4-.14.78-.28,1.16-2.16-.07-7.24-.98-4.81,2.11,1.08-1.12,1.59-.4,2.84-.52.52-.05,1-.52.81-.94.28,0,.56.02.84.04-.45.84-1.06,1.65-1.49,2.49-1.79,3.52-.48,7.55-.34,11.39.07,1.97-.45,4.16-1.58,5.87.27-.05.54-.1.81-.14,5.01-.74,10.73.36,13.81,3.89,3.06,3.53,2.04,9.59-2.67,11.25Z"/>
        <path class="cls-3" d="M51.88,109.16c-.21-.15-.42-.3-.62-.45.65-.13,1.08-.72,1.11-1.3.04-.58-.25-1.14-.62-1.62-.45-.58-1.22-1.12-1.98-.89-.96.29-.97,1.47-.65,2.31.32.84.78,1.81.19,2.54.36-.07.76.03,1.02.25-1.4.78-1.72,3.26.34,3.4,2.06.14,2.46-2.15.38-2.57.04-.11.85-1.66.83-1.68Z"/>
        <path class="cls-4" d="M13.59,78c0,1.09,1.2,2.07.86,3.11-.33,1.03-2.01,1.5-2.08,2.57-.08,1.2,1.83,1.63,3.18,1.39,2.49-.44,4.77-1.76,6.19-3.6.7-.9.97-2.44-.21-2.8,1.61-.49,3.22-.98,4.83-1.48,1.26.94,2.62,2.52,1.58,3.64-.67.73-2.26,1.23-1.78,2.06.19.34.71.51.8.88.1.39-.33.72-.69.97-1.52,1.11-2.42,2.85-2.37,4.58,2.29-1.84,5.44-2.84,8.55-2.73.73.03,1.54.09,2.1-.32.56-.41.31-1.46-.41-1.36.87-.54,1.74-1.09,2.61-1.63.2-.12.4-.26.5-.45.23-.45-.28-.95-.82-1.11-.54-.16-1.14-.14-1.65-.35-1.14-.46-1.33-1.76-1.72-2.79s-1.79-2.09-2.75-1.39c.24-1,.48-2.07.03-3.01-.45-.94-1.89-1.58-2.84-.97-.54-.7.72-1.35,1.38-1.97.72-.68.71-1.85-.04-2.5-.75-.65-2.12-.65-2.86.02.1-1.92.57-4.28,2.67-4.87.58-.16,1.21-.15,1.78-.32.57-.17,1.12-.63,1.03-1.15.1.61,1.23.64,1.66.15.42-.5.33-1.18.23-1.79-1.64-.41-2.35,1.99-3.97,2.45-.75.21-1.6-.04-2.32.22-1.71.62-1.25,3.4-3.04,3.83-.42.1-.89.03-1.29.18-.82.31-.9,1.28-.71,2.04.2.75.55,1.56.17,2.26-.21.38-.63.77-.46,1.16.22.52,1.11.38,1.72.57,1.53.47.69,2.03-.1,2.65-.99.77-2.66.57-3.83.43-1.75-.21-5.92-1.55-5.94,1.41Z"/>
        <path class="cls-1" d="M17.55,51.23c-1.38.49-2.67,1.17-3.8,2.01-1.05.77-2.23,1.75-3.58,1.52-1.37-.24-2.02-1.57-2.62-2.67-.6-1.1-1.82-2.28-3.15-1.89.72-.75,1.44-1.51,2.16-2.26-1.72-.22-3.43-.43-5.15-.65-.42-.05-.88-.12-1.15-.4-.64-.65.32-1.62,1.27-1.87,2.14-.55,4.49.29,6.09,1.63.67.56,1.52,1.27,2.38.96.57-.21.81-.78,1.19-1.2.91-1.01,2.61-1.15,4.08-1,2.48.25,7.43-1.33,8.4,1.25,1.09,2.9-4.12,3.87-6.11,4.58Z"/>
      </g>
    </g>
  </g>
</svg>