<?xml version="1.0" encoding="UTF-8"?>
<svg id="Layer_2" data-name="Layer 2" xmlns="http://www.w3.org/2000/svg" xmlns:xlink="http://www.w3.org/1999/xlink" viewBox="0 0 301.47 182.06">
  <defs>
    <style>
      .cls-1 {
        fill: url(#linear-gradient-2);
      }

      .cls-1, .cls-2, .cls-3, .cls-4, .cls-5, .cls-6, .cls-7, .cls-8, .cls-9, .cls-10, .cls-11, .cls-12 {
        stroke: #283618;
        stroke-miterlimit: 10;
        stroke-width: .1px;
      }

      .cls-2 {
        fill: url(#linear-gradient-12);
      }

      .cls-3 {
        fill: url(#linear-gradient-6);
      }

      .cls-4 {
        fill: url(#linear-gradient-3);
      }

      .cls-5 {
        fill: url(#linear-gradient-11);
      }

      .cls-6 {
        fill: url(#linear-gradient-7);
      }

      .cls-7 {
        fill: url(#linear-gradient-9);
      }

      .cls-8 {
        fill: url(#linear-gradient-8);
      }

      .cls-9 {
        fill: url(#linear-gradient-4);
      }

      .cls-10 {
        fill: url(#linear-gradient);
      }

      .cls-11 {
        fill: url(#linear-gradient-5);
      }

      .cls-12 {
        fill: url(#linear-gradient-10);
      }
    </style>
    <linearGradient id="linear-gradient" x1="280.45" y1="-17.01" x2="211.13" y2="52.32" gradientUnits="userSpaceOnUse">
      <stop offset="0" stop-color="#47532a"/>
      <stop offset=".2" stop-color="#4c582d"/>
      <stop offset="1" stop-color="#606c38"/>
    </linearGradient>
    <linearGradient id="linear-gradient-2" x1="175.58" y1="25.01" x2="54.6" y2="145.99" xlink:href="#linear-gradient"/>
    <linearGradient id="linear-gradient-3" x1="118.8" y1="27.12" x2="94.58" y2="51.35" xlink:href="#linear-gradient"/>
    <linearGradient id="linear-gradient-4" x1="99.47" y1="18.71" x2="89.81" y2="28.37" xlink:href="#linear-gradient"/>
    <linearGradient id="linear-gradient-5" x1="117.56" y1="20.62" x2="104.13" y2="34.04" xlink:href="#linear-gradient"/>
    <linearGradient id="linear-gradient-6" x1="112.48" y1="14.59" x2="105.86" y2="21.21" xlink:href="#linear-gradient"/>
    <linearGradient id="linear-gradient-7" x1="129.73" y1="13.76" x2="125.17" y2="18.32" xlink:href="#linear-gradient"/>
    <linearGradient id="linear-gradient-8" x1="134.53" y1="21.26" x2="127.29" y2="28.49" xlink:href="#linear-gradient"/>
    <linearGradient id="linear-gradient-9" x1="136.61" y1="31.8" x2="129.36" y2="39.05" xlink:href="#linear-gradient"/>
    <linearGradient id="linear-gradient-10" x1="192" y1="-11.3" x2="149.7" y2="30.99" xlink:href="#linear-gradient"/>
    <linearGradient id="linear-gradient-11" x1="144.38" y1="18.16" x2="137.66" y2="24.88" xlink:href="#linear-gradient"/>
    <linearGradient id="linear-gradient-12" x1="189.65" y1="155.38" x2="173.44" y2="171.59" xlink:href="#linear-gradient"/>
  </defs>
  <g id="OBJECTS">
    <g id="Map">
      <g id="North_America" data-name="North America">
        <path class="cls-10" d="M301.38,3.93c-1.86,2.8-5.01,4.94-8.59,5.82-1.69.42-3.56.61-4.84,1.66-.79.65-1.23,1.54-1.66,2.41-.84,1.71-1.68,3.47-1.73,5.33-.05,1.86.9,3.86,2.82,4.67-2.68,1.15-2.94,5.01-.44,6.43-1.02,2.22-5.3.98-7.33,2.6-1.57,1.26-.96,3.52-.02,5.18.95,1.67,2.15,3.53,1.38,5.27-2.87-.97-5.75-1.95-8.62-2.92-1.08,2.04,2.03,4.57,4.29,3.48-2.17,3.4-7.98,2.73-12.05,4.34-4.35,1.72-6.69,6.14-11.09,7.77-2.16.8-4.63.83-6.78,1.65-2.16.82-4.02,2.98-3,4.83.2.36.51.72.46,1.13-.06.42-.49.71-.86.99-3.53,2.62-3.57,7.27-3.33,11.3-1.26.82-3.04-.29-3.73-1.52-.69-1.23-1.05-2.73-2.38-3.47-1.32-.73-3.1-.38-4.55-.9-1.32-.47-2.17-1.59-2.93-2.64-1.43-1.97-2.87-3.94-4.3-5.91-1.21-1.66-2.44-3.38-2.78-5.32-.34-1.94.47-4.17,2.47-5.08,1.41-.64,3.71-1.6,2.69-2.67-.23-.24-.58-.35-.92-.45-2.6-.8-5.19-1.61-7.79-2.41,1.01-2.72,4.64-4.48,7.83-3.8,1.18-1.63-1.54-3.43-3.76-3.4-2.22.03-4.69.73-6.49-.4,1.67-2.03,1.59-4.9.24-7.11-1.35-2.2-3.78-3.79-6.4-4.8-1.17-.45-2.42-.8-3.7-.82-2.02-.03-3.96.78-5.98.79-2.86.02-5.48-1.6-7.12-3.64-1.64-2.04-2.48-4.48-3.3-6.86,2.31,1.11,5.35,1.17,7.49-.16,2.14-1.33,3.03-4.14,1.63-6.08,2.91-.57,5.83-1.14,8.75-1.7.74-.14,1.49-.29,2.13-.64.82-.45,1.36-1.18,2.1-1.72,1.42-1.03,3.37-1.25,5.21-1.43l14.76-1.43c.95-.09,1.92-.18,2.84.03,2.42.56,4.61,3.11,6.78,2.03.09-.83-.2-1.68-.78-2.34,2.77-1.11,5.96-.77,9.01-.73,6.14.08,12.21-1.16,18.34-1.24,6.02-.08,12.06.98,17.57,3.07-1.85,1.11-3.95,1.89-6.15,2.27,1.44-.08,2.89.14,4.22.62-1.06-.39-5.84,2.89-6.6,3.49,2.6,1.76,8.32-1.88,11-3,5.09-2.11,10.28-3.32,15.96-2.59Z"/>
        <path class="cls-1" d="M78.51,41.11c-6.49,2.35-13.22,4.69-20.24,4.61-3.05-.03-6.06-.52-9.05-1.01-6.51-1.06-13.09-2.14-19.15-4.47-1.62-.62-3.24-1.34-5.01-1.44-1.97-.1-3.88.59-5.65,1.35-5.37,2.32-10.29,5.42-14.48,9.15,4.36.6,8.42,2.74,11.03,5.84-2.06.87-4.84.07-5.9-1.7-2.77-.7-5.99,1.21-6.27,3.7s2.48,4.9,5.35,4.67c1.02-1.18,2.59-1.97,4.27-2.16.79,1.16,1.58,2.31,2.37,3.47-1.38,1.45-3.8,1.6-5.91,2.01-2.11.42-4.48,1.71-4.24,3.58.41,3.11,7.28,3.38,6.97,6.5.1-1.06,14.3-1.88,7.43,5.21-1.08,1.11-2.69,1.92-4.36,1.79.46,1.14.36,2.55-.67,3.36-1.03.81-3.05.52-3.37-.66-1.1,2.05-4.13,2.53-6.72,2.75-.31.9-.61,1.81-.92,2.71-.21-1.13-1.92-1.8-3.04-1.2-1.12.6-1.22,2.2-.21,2.93.95.67,2.32.51,3.52.31.45-.07.96-.19,1.15-.55.12-.22.08-.48.09-.72.04-1.19,1.24-2.13,2.52-2.55,1.28-.42,2.67-.47,4-.74,2.2-.45,4.18-1.49,5.94-2.73,1.91-1.34,3.64-2.93,5.81-3.93.83-.38,1.72-.68,2.52-1.11,5.89-3.18,2.13-8.68,10.85-9.62.12,1.05-.71,2.13-1.87,2.43,2.79,1.79,5.85-3.86,9.12-2.84.92.29,1.52,1.05,2.31,1.55,1.47.92,3.43.86,5.24.99,7.19.53,13.75,5.17,15.82,11.19,3.15-.81,5.76,2.12,7.33,4.62,2.58,4.14,5.17,8.28,7.75,12.42,1.64,2.63,3.3,5.29,4.15,8.19,1.22,4.14.73,8.55,1.87,12.71,1.14,4.16,4.82,8.39,9.74,8.28.8,6.52,2.99,12.91,6.44,18.74-1.68,1.48,1.02,3.68,3.32,4.26,2.3.58,5.32,2.06,4.32,3.95,2.71-2.62-.74-6.58-4.04-8.63-3.3-2.05-7.18-5.45-5.11-8.48,1.13-.99,3.1.17,3.63,1.48.53,1.31.48,2.87,1.55,3.9.93.91,2.44,1.14,3.65,1.76,4.37,2.26,3.45,8.66,7.68,11.11,1.54.89,3.57,1.1,4.91,2.22.96.8,1.41,1.95,2.04,2.97,2.22,3.61,6.68,5.65,10.89,7.49,1.23.53,2.45,1.07,3.68,1.6,7.03,3.06,14.06,6.12,21.08,9.18.68.29,1.46.59,2.16.35,2.89-.99-3.01-5.46-.56-7.12-3.45-1.45-6.9-2.9-10.35-4.34,2.15-1.67,2.44-4.86.61-6.8,1.27-.26,2.33-1.2,2.6-2.31-1.52-1.38-4.3-.24-5.48,1.37-1.18,1.61-1.66,3.63-3.25,4.94-3.6,2.97-9.98-.18-11.37-4.33-1.39-4.15.2-8.54.73-12.83.21-1.73.38-3.71,1.96-4.79,3.61-2.46,8.93,2.73,13.11,1.11,1.6-.62,2.55-2.11,4.06-2.88,2.6-1.34,6.15-.1,7.95,2.02,1.8,2.11,2.31,4.83,2.76,7.44.85,1.22,3.22-.13,3.09-1.55-.13-1.42-1.48-2.48-2.36-3.68-2.27-3.06-1.24-7.6,2.19-9.69,3.05-1.85,8.06-2.58,8.26-5.81.13-2.09-2.15-3.8-2.25-5.89-.08-1.84,1.52-3.37,3.01-4.67,4.22-3.68,8.43-7.37,12.65-11.05.99-.86,2.19-1.8,3.58-1.66,1.39.14,2.17,2.14.84,2.54,4.97.17,11.63-.88,12.03-5.19-2.01,1.53-4.39,2.69-6.94,3.37-.27-2.05.43-4.19,1.89-5.82-1.85-2.78-6.28-3.54-9.81-2.58-3.52.96-6.35,3.21-9.04,5.41,4.05-4.16,9.47-7.64,15.69-8.27,2.34-.24,4.86-.1,6.89-1.13,2.84-1.44,5.35-5.06,8.2-3.66-2.09,3.19-4.17,6.37-6.26,9.56,2.25-.15,4.5-.29,6.75-.44.91,1.36,1.36,2.95,1.27,4.52,2.75-.17,6.54-1.75,5.31-3.89-.62-1.09-2.26-1.37-3.34-2.14-2.98-2.12-.66-6.49-2.15-9.58-.75-1.54-2.38-2.6-3.87-3.66-6.33-4.51-11.29-10.47-14.26-17.11-.72,1.58-1.52,3.23-3.08,4.25s-4.15,1.03-5.18-.41c-.56-.79-.53-1.79-.83-2.68-.67-2.03-2.89-3.31-4.96-4.41-2.51-1.34-5.46-2.73-8.24-1.9s-3.42,5.19-.52,5.59c-2.71.08-2.62,3.74-1.07,5.68,1.54,1.94,3.71,4.35,2.23,6.32-1.31,1.75-4.64,1.58-5.96,3.32-1.27,1.68.11,3.85,1.08,5.68.97,1.83.94,4.71-1.33,5.1-1.94.33-3.34-1.62-3.71-3.31-.57-2.66-.17-5.55-1.6-7.95-1.43-2.4-6.02-3.54-7.46-1.14-.79-2.45-3.07-4.49-5.86-5.24-2.27-.62-4.79-.43-6.94-1.3-3.22-1.31-4.66-4.53-5.81-7.45,4.2-2.09,8.68-4.44,10.55-8.33.5-1.04.83-2.22,1.78-2.99.86-.7,2.07-.94,3.03-1.54.95-.6,1.56-1.9.7-2.6,1.23-.66,2.74-.91,4.17-.7,2.44,2.88-5.04,7.79-1.52,9.63,1.9.99,3.95-1.05,4.93-2.78,1.53.54,3.07,1.08,4.6,1.62,1.98-1.4-.35-4.07-2.61-5.09-2.27-1.02-5.14-2.84-4-4.83,2.03-.03,4.06-.06,6.09-.1.13-1.69-1.16-3.38-2.99-3.94,1.04-1.4,2.09-2.8,3.13-4.2-.95-.91-2.49-1.32-3.86-1.02,4.11-.53,8.12-1.62,11.84-3.22,3.04,3.02,5.91,6.18,8.58,9.46.43.53.87,1.1.85,1.75-.04,1.41-1.99,2.01-3.4,2.7-1.41.69-2.27,2.87-.7,3.22-.21,1.04-2.01,1.03-3.02.44-1.01-.59-1.94-1.51-3.15-1.45-2.3.12-1.92,3.64.28,4.23,2.2.59,4.44-.64,6.3-1.81,4.29,3.37,9.41,5.94,14.9,7.48-2.22-.4-3.84-2.49-3.43-4.43,2.57.65,5.03,1.66,7.23,2.99,1.87-1.98-.53-4.86-2.98-6.28-2.45-1.42-5.52-3.18-5.14-5.72,3.22-.07,6.41,1.53,7.96,3.98,1.22-1.51,2.44-3.02,3.66-4.52-1.38-3.97-10.18-2.75-11.09-6.82-.18-.79,0-1.69-.56-2.32-.88-.98-2.64-.5-4.07-.54-5-.14-8.03-7.42-12.64-5.74,1.93-3.14-3.56-7.12-6.76-4.91,1.76.57,3.68,1.36,4.32,2.9s-1.23,3.64-2.87,2.84c-1.66-.81-.87-3.09-1.78-4.54-1.11-1.76-4.46-1.41-5.81.22-1.35,1.64-1.18,3.87-.64,5.82-1.11-.02-2.23-.05-3.34-.07-.24-2.74.37-5.53,1.75-8-1.31-1.69-4.27-.07-5.71,1.54-1.51,1.69-3.06,3.47-3.53,5.57-.47,2.1.52,4.62,2.82,5.38,1.48.49,3.19.18,4.66.68,3.36,1.15,2.04,6.61-1.57,6.48-1.12-1.6-1.77-3.43-1.88-5.3-1.74.44-3.36,1.23-4.71,2.29-1.76-3.79-4.22-7.34-7.25-10.47.72-1.21,1.44-2.42,2.16-3.63,2.9,1.1,6.61-1.6,5.88-4.27-2.41-.59-4.94-1.18-7.38-.7-2.44.48-4.7,2.42-4.36,4.57.2,1.29,1.26,2.37,1.65,3.63.39,1.26-.48,3.02-1.96,2.81-.77,3.06,6.69,3.14,7.02,6.26.23,2.19-3.18,3.05-5.71,3.02.74,2.11.62,4.44-.32,6.49-1.9-3.1-.86-7.32,2.33-9.47-1.91-2.56-6.33-3.36-9.26-1.69,1.1,1.46,2.83,2.54,4.77,2.98-1.02,1.03-2.04,2.06-3.07,3.09-2.21-1.39-5.25-.3-7.97-.16-2.72.14-6.03-2.48-4.11-4.16-1.64-.86-3.86-1.16-5.41-.19-1.56.97-1.69,3.43.05,4.14-3.62.81-9.61-4.98-12.23-.54-1.64-4.51-4.27-5.86-9.47-6.09-3.45-.15-13.66-2.37-15.42.15-.15-.33-1.6-3.5-1.53-3.53Z"/>
        <path class="cls-4" d="M88.08,29.27c-1.96.18-3.05,2.1-3.3,3.8-.25,1.7-.06,3.53-1.02,5.03-.24.37-.55.72-.62,1.14-.22,1.2,1.56,1.96,2.94,1.77,4.01-.56,6.52-5.32,10.52-4.73.04.93.08,1.87.12,2.8,2.63.02,5.27-.31,7.79-.98.77.43.34,1.57-.48,1.92-.82.35-1.79.23-2.7.31-.91.07-1.95.5-2.04,1.29,1.76-.44,3.6-.89,5.4-.59,1.8.3,3.52,1.6,3.46,3.19-2.55-.1-5.11-.02-7.65.24,1.4,1.44,3.93,1.27,6.08,1.47s4.71,1.7,3.95,3.47c2.92-2.68,7.79-3.57,11.7-2.16.98.35,1.91.84,2.95,1.02,1.04.18,2.27-.03,2.85-.8.58-.77,0-2.08-1.06-2.05,1.37-.16,2.58-1.11,2.9-2.29-2.36.67-5.2-.47-6.16-2.46-.86-1.81-.35-4.13-1.9-5.55,1.35.35,2.7-1.04,2.37-2.24-.33-1.19-1.81-1.94-3.22-1.97-.93-.02-1.92.25-2.47.9-.55.65-.45,1.72.36,2.13-1.09-.46-2.18-.92-3.26-1.38-.43,2.32,4.8,3.7,3.57,5.79-.78,1.33-3.45.49-3.76-.98-.21-.97.05-2.26-.97-2.68-1.94-.82-3.36,3.33-5.22,2.37.12-.93.23-1.86.35-2.79-2.39-.17-4.85.59-6.6,2.02.22-.9.43-1.8.65-2.7-2.6-1.25-5.17,3.19-7.97,2.34,2.7.81,8.74-3.77,3.99-5.71-1.14-.47-3.51.26-4.78.18-2.22-.14-4.53-1.32-6.76-1.11Z"/>
        <path class="cls-9" d="M99.88,19.66c-1.84-.8-4.08.07-5.65,1.23s-2.86,2.66-4.73,3.42c-.88.36-1.93.58-2.47,1.28,3.1-.04,6.2-.22,9.28-.55-.17.91-.7,1.77-1.47,2.4,1.44.46,2.64-1.12,2.84-2.45.06-.41.12-.88.5-1.13.3-.21.72-.21,1.1-.26,1.31-.18,2.45-1.26,2.29-2.4-.16-1.14-1.88-1.95-2.95-1.26"/>
        <path class="cls-11" d="M109.56,27.17c.38-.18.59-.59.48-.96-1.93.05-3.76-1.34-3.96-3-1.1-.61-2.77-.14-3.25.92-.48,1.05.38,2.39,1.66,2.59-1.87.69-3.73,1.39-5.6,2.08,3.57,1.67,7.8-1.97,11.76-1.24,0,.42,0,.83,0,1.25-1.71.02-3.4.7-4.51,1.84,2.95.23,5.98-.41,8.48-1.8.71-.39,1.41-.85,2.24-.95.73-.09,1.46.11,2.18.2,1.72.21,3.91-.64,3.85-2.15-1.16-.34-2.4-.47-3.63-.39-.37-1.97-3.2-3.24-5.26-2.38.03,1.35.76,2.68,1.94,3.56-1.17.89-3,1.05-4.35.38-.64-.32-1.23-.82-1.97-.82-.79,0-1.82.5-2.23-.1"/>
        <path class="cls-3" d="M111.78,17.35c-2.91-.3-5.91.13-8.55,1.24,1.43.56,2.85,1.12,4.28,1.68.32.13.66.26,1.02.25.31,0,.61-.11.9-.22,1.37-.51,2.75-1.03,4.12-1.54-.24-.3-.48-.61-.71-.91.61.36,1.54-.16,1.58-.81.04-.64-.58-1.21-1.29-1.4-.71-.19-1.47-.09-2.19.06-.84.17-1.66.41-2.46.69.42.76,1.24,1.35,2.19,1.55.02.3.03.6.05.9"/>
        <path class="cls-6" d="M132.11,17.73c-.63.03-1.01-.63-1.04-1.18-.03-.55.11-1.14-.2-1.62-.77-1.18-2.84-.31-4.38-.52-.91-.13-1.67-.68-2.53-.96-.87-.28-2.1-.12-2.35.65-.28.87.94,1.56,1.98,1.58,1.04.02,2.1-.3,3.09-.02.18.05.37.13.48.27.73.85-1.9,1.47-1.65,2.51.12.51.85.67,1.45.73.88.08,1.77.17,2.65.25.92.09,1.94.15,2.68-.33.74-.48.76-1.74-.14-1.93"/>
        <path class="cls-8" d="M136.79,25.85c.52-.52.2-1.4-.45-1.8-.65-.4-1.49-.45-2.28-.46-2.32-.01-4.63.25-6.87.77-.69.16-1.41.35-2.11.22s-1.35-.71-1.2-1.32c-.96.94.19,2.5,1.59,2.82,1.39.32,2.87-.05,4.31.02,1.44.07,3.09.93,2.94,2.18-.04.3-.17.61-.03.88.17.33.65.42,1.06.41,1.92-.08,3.38-2.04,2.69-3.6-.46.06-.95-.17-1.14-.54.84-.29,1.5-.95,1.7-1.72-1.56-.51-3.39-.39-4.84.33"/>
        <path class="cls-7" d="M135.97,32.75c.8-.5.27-1.74-.67-1.99-.94-.24-1.94.19-2.72.72-.05.7-.1,1.41-.15,2.11-.93-.17-1.95,0-2.74.46,1.38.32,2.52,1.35,2.83,2.56-1.31.78-3.4.23-3.99-1.05-.27-.6-.37-1.4-1.08-1.6-1-.28-1.58,1.09-1.12,1.91,1.22,2.16,4.92,2.02,6.99,3.63.74.58,1.87,1.4,2.5.73.5-.53-.15-1.29-.76-1.73.73.08,1.51.14,2.18-.14.66-.28,1.12-1.02.77-1.58-.19-.29-.54-.47-.84-.67-1.1-.77-1.49-2.2-.92-3.32-.39-.14-.79-.29-1.18-.43"/>
        <path class="cls-12" d="M172.25,27.01c-2.5-1.31-5.61-1.71-8.44-1.1-2.05.44-3.96,1.39-6.07,1.52-3.08.19-6.02-1.49-7.7-3.74,2.33-1.39,5.74,1.34,8.2.12.71-.35,1.2-.99,1.94-1.27.76-.29,1.64-.17,2.45-.04,3.93.61,7.87,1.23,11.8,1.84.46-1.46-.97-3.14-2.72-3.17,2.06-.72,4.12-1.44,6.18-2.17,1.04-.36,2.15-.78,2.72-1.62.57-.84.16-2.21-.95-2.33,4.75-1.44,9.35-3.24,13.72-5.39-.44-.66-.88-1.33-1.32-1.99,3.05.27,6.2-.54,8.59-2.21-3.42-.25-6.88.04-10.19.83,5.69.62,11.57-.21,16.74-2.37-1.86-1.41-5.24.42-7.06-1.01-.55-.43-.82-1.08-1.38-1.5-.69-.52-1.66-.59-2.57-.63-9.28-.43-18.6-.2-27.84.68-1.52.15-3.45.66-3.53,1.99l-6.64-.24c-1.59,1.86-4.72,2.59-7.17,1.66-.55.76-1.11,1.53-1.66,2.29,1.54.93,3.48,1.35,5.34,1.18,1.14,2.04,4.84,2.49,6.58.8.77,2.32,4.76,1.88,7.12.62,2.36-1.26,5.39-2.88,7.61-1.42-2.94,1.98-6.7,3-10.41,2.83.93.97,1.86,1.95,2.79,2.92-2.28.12-4.3-1.14-6.29-2.11-1.99-.97-4.61-1.65-6.45-.48,1.67,1.18,3.33,2.36,5,3.55-4.59-2.1-9.18-4.21-13.77-6.31-1.35-.62-2.9-1.25-4.33-.79-1.43.46-1.85,2.63-.39,2.97-1.14.18-2.12.97-2.41,1.94,2.72.19,5.39.85,7.82,1.92-1.14.32-2.29.64-3.43.96,2.61.74,5.23,1.48,7.84,2.22.53.15,1.14.3,1.63.06.49-.24.67-.76.95-1.19.82-1.28,2.93-1.77,4.38-1.02-.33.69-.66,1.37-1,2.06,1.23,0,2.47.01,3.7.02.02.59.04,1.18.06,1.77,1.79.24,3.63.2,5.4-.13-.65,2.09-4.13,2.27-6.31,1.22-2.17-1.05-3.89-2.85-6.28-3.44.76,1.55,1.99,2.93,3.52,3.97-3.19-.45-6.52-.17-9.55.79-.3-.56-.59-1.11-.89-1.67-2.5.9-2.12,4.05-1.31,6.29.24.66.49,1.34.99,1.87,1.14,1.21,3.17,1.35,4.97,1.4,2.71.07,5.42.14,8.12.2,3.77.09,12.01,1.63,11.87-3.17Z"/>
        <path class="cls-5" d="M142.55,24.48c.74-.45,2.08-.07,2.43-.79.26-.55-.41-1.07-1-1.36-.59-.29-1.3-.74-1.13-1.31-.53.07-1.08-.03-1.53-.28,1.13-.26,2.26-.52,3.4-.78.43-.1.98-.44.72-.76-.09-.11-.24-.16-.39-.19-.7-.16-1.46-.18-2.08-.51-.62-.33-.96-1.16-.42-1.59-.39-.03-.78-.06-1.16-.09-.02-.27-.03-.54-.05-.8-2.01-.05-4.01-.19-6-.43-.29,1.17,1,2.41,2.36,2.28.22-.02.46-.07.65.04.16.1.21.28.3.44.26.46.97.69,1.5.47-.16.34-.42.63-.76.85.65.3,1.36.49,2.09.57-.57.4-1.25.68-1.97.81.3.21.59.42.89.63-.76.01-1.51.03-2.27.04-.23.62.46,1.21,1.16,1.45.77.27,4.52,2.34,2.27,3.27-1.28.53-1.81-1.31-1.36-2.01.71,1.44.5,3.43,1.75,4.69.91.92,2.3,1.09,3.19-.12,1.53-2.09-2.18-2.71-2.55-4.53Z"/>
        <path class="cls-2" d="M161.64,159.78c1.12.98,2.86-.5,4.44-.67,1.53-.17,2.78.95,3.93,1.85,1.15.89,2.94,1.65,4.13.8.57,2.07,3.88,3.11,5.84,1.82-.18.73.93,1.23,1.78,1.1.85-.13,1.6-.59,2.46-.65,1.24-.08,2.43.88,2.45,1.96.03.4-.61.54-1.05.44-.44-.1-.93-.3-1.32-.09-.27.15-.38.44-.57.66-.69.82-2.14.51-3.24.18-1.1-.33-2.67-.43-3.09.52,3.46.59,7.06.55,10.5-.14-.28.23-.07.69.28.83.36.14.77.06,1.15-.02,1.47-.31,2.94-.61,4.4-.92.88.47,2.06.47,2.95,0-.06.35-.12.7-.18,1.05,1.72.65,3.95.03,4.92-1.37-2.44-.35-4.88-.7-7.33-1.06-1.75-.25-3.55-.52-5.08-1.3-1.51-.77-2.71-2.02-4.37-2.49-2.33-.66-5,.37-7.26-.44-2.19-.78-3.57-3.15-5.93-3.19-.77-.01-1.58.24-2.28-.04-1.77-.71-1.54-2.17-3.83-1.41-.43.14-3.31,2.9-3.7,2.57Z"/>
      </g>
    </g>
  </g>
</svg>