<?xml version="1.0" encoding="UTF-8"?>
<svg id="Layer_2" data-name="Layer 2" xmlns="http://www.w3.org/2000/svg" xmlns:xlink="http://www.w3.org/1999/xlink" viewBox="0 0 91.24 147.63">
  <defs>
    <style>
      .cls-1 {
        fill: url(#linear-gradient);
        stroke: #283618;
        stroke-miterlimit: 10;
        stroke-width: .1px;
      }
    </style>
    <linearGradient id="linear-gradient" x1="24.77" y1="12.4" x2="67.07" y2="121.12" gradientUnits="userSpaceOnUse">
      <stop offset="0" stop-color="#283618"/>
      <stop offset=".28" stop-color="#2d3b1b"/>
      <stop offset=".64" stop-color="#3c4a23"/>
      <stop offset="1" stop-color="#546131"/>
    </linearGradient>
  </defs>
  <g id="OBJECTS">
    <g id="Map">
      <path id="South_America" data-name="South America" class="cls-1" d="M1.21,6.41c-.89,2.07,1.98,4.5,4.34,3.66.68-.24,1.27-.68,2-.79,2.03-.31,3.19,1.91,3.62,3.66.49,2,.97,4.14.11,6.05-1.03,2.28-3.84,3.88-4.17,6.31-.27,1.99,1.24,4.04.47,5.93-.35.86-1.13,1.54-1.5,2.39-.66,1.52.13,3.21.9,4.69,2.58,4.93,5.16,9.86,7.74,14.79.58,1.11,1.2,2.26,2.32,3,.89.59,2,.85,2.94,1.37,1.53.85,2.47,2.3,3.35,3.68,1.62,2.56,3.26,5.18,3.96,8.04.95,3.91.06,7.95-.83,11.87-1.3,5.73-2.6,11.45-3.9,17.18-1.43,6.3-2.86,12.6-4.29,18.9,1.53-.81,2.67-2.16,3.09-3.68.73,4.1-.2,8.4-2.59,11.99-.21-1.55-.41-3.09-.62-4.64-1.75,3.29-2.66,6.91-2.63,10.54,0,.65.07,1.37.59,1.84.49.45,1.26.54,1.89.83,1.37.62,1.96,2.28,1.23,3.47.72.15,1.45.29,2.17.44,1.12.77-1.53,1.86-1.52,3.1,0,.51.48.9.91,1.24,2.05,1.57,4.1,3.14,6.15,4.71,1.43.37,2.91.74,4.38.54,1.47-.2,2.92-1.14,3.06-2.43.19-1.77-1.93-2.95-3.3-4.27-2.12-2.05-2.64-5.07-2.11-7.78.54-2.72,1.99-5.23,3.43-7.69-.93-.3-1.86-.61-2.79-.91.07-1.82,2.2-2.94,3.55-4.33,2.45-2.53,2.18-6.71-.58-8.98,1.02-.63,2.04-1.25,3.06-1.88.84,1.16,1.67,2.33,2.51,3.49,2.09-1.46,2.87-4.18,1.82-6.32,4.74,1.06,10.1-2.32,10.41-6.57-1.17-.03-2.1-1.21-1.72-2.17.38-.97,1.94-1.39,2.89-.79-.52,1.18,1.02,2.47,2.47,2.31,1.44-.15,2.52-1.28,3.01-2.47.49-1.19.53-2.48.8-3.72.43-1.99,1.47-3.88,2.98-5.43,1.25-1.29,2.86-2.38,3.59-3.94.54-1.14.54-2.41.77-3.63.74-3.98,4.11-7.5,8.47-8.85.18,1.78,3.41,1.41,4.92.21,2.26-1.8,3.79-4.29,4.25-6.92.4-2.31.05-4.81,1.3-6.88.53-.87,1.34-1.64,1.64-2.59.26-.82.12-1.69.18-2.53.28-4.55,5.88-8.14,5.22-12.66-.42-2.93-3.36-5.04-6.07-6.82-4.14-2.72-8.54-5.54-13.7-6.1-3.27-.36-6.79.21-9.73-1.09,1.31-.07,2.24-1.26,2.3-2.4.07-1.14-.5-2.22-1.05-3.26-.37-.7-.75-1.4-1.12-2.09-1.52-2.84-4.01-6.16-7.57-5.72-1.06.13-2.22.59-3.12.09-.83-.46-.92-1.46-1.37-2.22-1.76-2.97-8.41-1.76-9.41-4.98-.26-.84-.04-1.86-.74-2.48-.56-.51-1.48-.52-2.29-.49-3.68.12-7.36.24-11.04.35-.12,1.26-1.07,2.43-2.38,2.95.19.74.38,1.47.58,2.21-.3,1.31-2.83,1.15-3.49-.06-.66-1.2-.02-2.63.75-3.78.78-1.15,1.73-2.32,1.71-3.66-1.67-.69-3.36.82-4.56,2.04-1.2,1.22-3.57,2.28-4.67.99.14,1.33.28,2.66.43,3.99-2.37,1.8-6.64,1.01-7.97-1.47-.92.99-1.92,2.03-3.33,2.37C1.88,8.48.04,7.72.05,6.45c.72,2.74,3.83,4.85,7.06,4.79"/>
    </g>
  </g>
</svg>